<?xml version="1.0" encoding="utf-8"?>
<!-- Generator: Adobe Illustrator 13.0.0, SVG Export Plug-In . SVG Version: 6.00 Build 14948)  -->
<!DOCTYPE svg PUBLIC "-//W3C//DTD SVG 1.1//EN" "http://www.w3.org/Graphics/SVG/1.1/DTD/svg11.dtd">
<svg version="1.1" id="Layer_1" xmlns="http://www.w3.org/2000/svg" xmlns:xlink="http://www.w3.org/1999/xlink" x="0px" y="0px"
	 width="445.789px" height="433.141px" viewBox="0 0 445.789 433.141" enable-background="new 0 0 445.789 433.141"
	 xml:space="preserve">
<g>
	
		<linearGradient id="SVGID_1_" gradientUnits="userSpaceOnUse" x1="285.04" y1="207.9512" x2="285.04" y2="216.9732" gradientTransform="matrix(1 0 0 -1 94 334.418)">
		<stop  offset="0" style="stop-color:#60A8D0"/>
		<stop  offset="1" style="stop-color:#FFFFFF"/>
	</linearGradient>
	<path fill="url(#SVGID_1_)" stroke="#000000" stroke-width="2" d="M381.393,81.859c0,0,1.7,17.126,12.39,16.698
		c10.693-0.425,15.812,9.429,15.812,17.135s-11.099,21.834-28.626,14.128c-17.523-7.708-32.48-20.124-32.48-20.124L381.393,81.859z"
		/>
	
		<linearGradient id="SVGID_2_" gradientUnits="userSpaceOnUse" x1="103.1245" y1="3.1436" x2="103.1245" y2="12.1657" gradientTransform="matrix(1 0 0 -1 94 334.418)">
		<stop  offset="0" style="stop-color:#60A8D0"/>
		<stop  offset="1" style="stop-color:#FFFFFF"/>
	</linearGradient>
	<path fill="url(#SVGID_2_)" stroke="#000000" stroke-width="2" d="M201.149,279.439c0,0-8.974,17.134,8.126,17.985
		c17.101,0.851,26.056,0.416,25.208,14.978c-0.851,14.563-6.834,26.129-24.785,26.129c-17.949,0-21.365-17.562-33.331-16.274
		c-11.968,1.284-16.657-2.136-16.657-2.136L201.149,279.439z"/>
	
		<linearGradient id="SVGID_3_" gradientUnits="userSpaceOnUse" x1="57.2764" y1="207.603" x2="60.5396" y2="203.9776" gradientTransform="matrix(1 0 0 -1 94 334.418)">
		<stop  offset="0" style="stop-color:#60A8D0"/>
		<stop  offset="1" style="stop-color:#FFFFFF"/>
	</linearGradient>
	<path fill="url(#SVGID_3_)" stroke="#000000" stroke-width="2" d="M114.086,152.423c0,0,61.496-59.491,68.56-59.491
		s13.418,8.504,9.187,15.582c-4.383,7.333-4.219,7.066-67.849,61.61L114.086,152.423z"/>
	
		<linearGradient id="SVGID_4_" gradientUnits="userSpaceOnUse" x1="259.8691" y1="249.5391" x2="263.8964" y2="245.9797" gradientTransform="matrix(1 0 0 -1 94 334.418)">
		<stop  offset="0" style="stop-color:#60A8D0"/>
		<stop  offset="1" style="stop-color:#FFFFFF"/>
	</linearGradient>
	<path fill="url(#SVGID_4_)" stroke="#000000" stroke-width="2" d="M267.34,161.751C267.34,161.751,410.088,1,424.942,1
		c14.85,0,15.561,9.906,14.85,15.573c-0.709,5.667-122.989,135.972-122.989,135.972L267.34,161.751z"/>
	
		<linearGradient id="SVGID_5_" gradientUnits="userSpaceOnUse" x1="132.1118" y1="87.8901" x2="133.0146" y2="108.6449" gradientTransform="matrix(1 0 0 -1 94 334.418)">
		<stop  offset="0" style="stop-color:#60A8D0"/>
		<stop  offset="1" style="stop-color:#FFFFFF"/>
	</linearGradient>
	<path fill="url(#SVGID_5_)" stroke="#000000" stroke-width="2" d="M96.997,175.203c0,0-79.833-75.063-79.144-84.979
		c0.691-9.915-7.807-17,10.586-16.291c18.391,0.709,84.826,75.781,84.826,75.781l12.711,12.745l125.096,2.128
		c0,0,50.17-21.241,94.705-19.829c44.539,1.409,57.957,7.077,57.957,7.077s47.619,35.821,40.289,59.488
		c-6.691,21.606-27.4,48.673-54.414,49.575c-47.732,1.597-189.411-10.623-189.411-10.623s-37.473-12.744-53.017-22.659
		C131.64,217.701,96.997,175.203,96.997,175.203z"/>
	<path fill="#FF9090" d="M123.077,195.939c0,0,186.392,10.828,209.802,12.631c23.413,1.805,50.427-8.12,57.63-12.631
		c7.204-4.511,7.204-4.511,7.204-4.511l4.501,14.437c0,0-30.614,14.436-63.932,14.436c-33.316,0-74.735-5.414-74.735-5.414
		l-138.668-11.728L123.077,195.939z"/>
	
		<linearGradient id="SVGID_6_" gradientUnits="userSpaceOnUse" x1="40.9683" y1="23.3027" x2="47.2616" y2="17.0088" gradientTransform="matrix(1 0 0 -1 94 334.418)">
		<stop  offset="0" style="stop-color:#60A8D0"/>
		<stop  offset="1" style="stop-color:#FFFFFF"/>
	</linearGradient>
	<path fill="url(#SVGID_6_)" stroke="#000000" stroke-width="2" d="M277.481,215.39l-67.852-3.538
		c0,0-196.488,194.033-196.488,203.948c0,9.914-2.108,17.002,13.436,16.292c15.542-0.712,24.037-10.626,31.101-14.163
		C64.742,414.391,277.481,215.39,277.481,215.39z"/>
	<path fill="#88D0FF" stroke="#000000" d="M397.713,191.428c0,0,6.303-6.315,11.704-12.631c5.402-6.316,7.205-15.338,7.205-15.338
		l17.106,17.142c0,0,0.899,6.316-4.503,9.924c-5.402,3.609-27.013,15.338-27.013,15.338L397.713,191.428z"/>
	<line fill="none" stroke="#000000" x1="409.931" y1="178.86" x2="427.417" y2="192.542"/>
	
		<linearGradient id="SVGID_7_" gradientUnits="userSpaceOnUse" x1="229.5078" y1="180.2515" x2="229.9599" y2="174.8373" gradientTransform="matrix(1 0 0 -1 94 334.418)">
		<stop  offset="0" style="stop-color:#60A8D0"/>
		<stop  offset="1" style="stop-color:#FFFFFF"/>
	</linearGradient>
	<path fill="url(#SVGID_7_)" d="M251.073,164.588c0,0,52.992-19.625,86.76-19.174c33.767,0.452,62.132,5.414,66.633,8.121
		c4.502,2.707,6.303,5.865,6.303,5.865s2.7,12.631-18.009,15.338c-20.71,2.706-104.452,10.825-129.215,11.728
		c-24.763,0.902-29.263-7.668-21.159-13.534C250.491,167.068,251.073,164.588,251.073,164.588z"/>
	
		<linearGradient id="SVGID_8_" gradientUnits="userSpaceOnUse" x1="-28.0654" y1="191.2207" x2="-18.3165" y2="200.3964" gradientTransform="matrix(1 0 0 -1 94 334.418)">
		<stop  offset="0" style="stop-color:#60A8D0"/>
		<stop  offset="1" style="stop-color:#FFFFFF"/>
	</linearGradient>
	<path fill="url(#SVGID_8_)" d="M125.778,163.145l-12.104-12.129c0,0-67.475-75.994-85.03-76.539
		c-18.398-0.571-9.721,6.155-10.13,16.085c-0.386,9.36,79.24,84.626,79.24,84.626s4.591,5.95,17.108,19.624
		c6.313,0.584,19.709,9.871,25.066-22.332c0.797-4.784,4.928-6.895,6.214-9.352L125.778,163.145z"/>
	
		<linearGradient id="SVGID_9_" gradientUnits="userSpaceOnUse" x1="93.4438" y1="170.0908" x2="93.4438" y2="164.4915" gradientTransform="matrix(1 0 0 -1 94 334.418)">
		<stop  offset="0" style="stop-color:#60A8D0"/>
		<stop  offset="1" style="stop-color:#FFFFFF"/>
	</linearGradient>
	<path fill="url(#SVGID_9_)" d="M132.279,162.833c0,0,107.302,2.613,109.621,2.613s5.629,2.613,4.307,4.48
		c-1.325,1.866-30.138,7.466-57.626,8.213c-27.488,0.746-63.587-6.347-59.944-10.827
		C132.279,162.833,132.279,162.833,132.279,162.833z"/>
	
		<linearGradient id="SVGID_10_" gradientUnits="userSpaceOnUse" x1="-38.7129" y1="115.1064" x2="-34.5422" y2="110.3919" gradientTransform="matrix(1 0 0 -1 94 334.418)">
		<stop  offset="0" style="stop-color:#60A8D0"/>
		<stop  offset="1" style="stop-color:#FFFFFF"/>
	</linearGradient>
	<path fill="url(#SVGID_10_)" stroke="#000000" stroke-width="2" d="M1.017,257.973l102.478-89.226l13.436,12.034l-91.183,87.816
		c0,0-9.895,7.785-17.667,4.248C0.312,269.309,1.017,257.973,1.017,257.973z"/>
</g>
</svg>
